# xmcd
#
# Track frame offsets: 
#        183
#        6345
#        28040
#        45495
#        60525
#        71473
#        86790
#        102640
#        120480
#        138343
#        153480
#        168105
#        184738
#        207298
#        222178
#        236300
#        244428
#        251788
#        261033
#        284550
#
# Disc length: 3893 seconds
#
# Revision: 1
# Processed by: cddbd v1.5PL3 Copyright (c) Steve Scherf et al.
# Submitted via: ExactAudioCopy v0.95a3
#
DISCID=220f3314
DTITLE=Various Artist - IN THE MIX Mixed by dj buzz fuzz
DYEAR=1996
DGENRE=GABBER
TTITLE0=Intro - Behold... Here Comes The Dreamer
TTITLE1=Dj Buzz Fuzz - Frequencies (Pino D'Ambini Remix)
TTITLE2=DJ Buzz Fuzz and DJ Delirium - Immortality
TTITLE3=DJ Sim - Cartoons In Progress
TTITLE4=Omar Santana - How Shall I Rock Thee
TTITLE5=Lenny Dee - Emotional Response
TTITLE6=Kool Killers - Amerikaah !!
TTITLE7=Square Dimensione - Brand New Dance (Buzzy Mix)
TTITLE8=The Prophet and DJ Delirium - We Love 2 Party
TTITLE9=The Lawyer - Yo D.J.!
TTITLE10=Chosen Few - Name of The DJ
TTITLE11=Masoko Solo - Pessa Pessa (Prophet Mix)
TTITLE12=Bertocucci Feranzano and Tony Salmonelli - Daddy Snow (Buzzy's 
TTITLE12=Ragga Mix)
TTITLE13=Wedlock - Children of Artcore
TTITLE14=Neophyte - Execute
TTITLE15=DJ Dano - Starting Up !
TTITLE16=DJ Dave and The Chicago Hardcore Party Force - Listen...
TTITLE17=Nasty Django - Hardcore Motherfucker
TTITLE18=Dj Gizmo - Dopeman (Buzzy Goes Bzrk-Mix)
TTITLE19=Outro
EXTD=YEAR: 1996
EXTT0=
EXTT1=
EXTT2=
EXTT3=
EXTT4=
EXTT5=
EXTT6=
EXTT7=
EXTT8=
EXTT9=
EXTT10=
EXTT11=
EXTT12=
EXTT13=
EXTT14=
EXTT15=
EXTT16=
EXTT17=
EXTT18=
EXTT19=
PLAYORDER=
